<svg width="400" height="490" viewBox="0 0 400 490" fill="none" xmlns="http://www.w3.org/2000/svg">
<g id="Group">
<path id="Vector" d="M338.9 151.36C347.79 151.36 355 158.57 355 167.47C355 176.36 347.79 183.57 338.9 183.57C330 183.57 322.79 176.36 322.79 167.47C322.79 158.57 330 151.36 338.9 151.36Z" fill="#FF7979"/>
<path id="Vector_2" d="M327.796 176.595C327.796 167.695 335.006 160.485 343.906 160.485C348.088 160.485 351.885 162.093 354.747 164.709C353.435 157.128 346.848 151.36 338.9 151.36C330 151.36 322.79 158.57 322.79 167.47C322.79 172.177 324.824 176.4 328.048 179.344C327.893 178.449 327.796 177.534 327.796 176.595Z" fill="#D65B5B"/>
<path id="Vector_3" d="M124.484 132.461C124.046 124.158 123.235 115.054 123.18 107.879C123.11 98.769 123.05 89.669 123.19 80.699C177.191 57.994 235.081 55.567 298.961 79.758C298.975 78.48 298.99 77.192 299.01 75.889C231.231 47.599 170.19 49.089 113.44 72.949C113.3 81.919 113.36 91.019 113.43 100.129C113.51 110.469 115.16 124.819 115 134.999C118.175 134.109 121.334 133.27 124.484 132.461Z" fill="#414A56"/>
<path id="Vector_4" d="M315 485H235L202.46 364.67L234.21 385.91L287.15 319.73L395 355.86V485H315Z" fill="#A8CFFF"/>
<path id="Vector_5" d="M205.631 375.92L237.381 397.16L290.321 330.98L395 366.048V355.86L287.15 319.73L234.21 385.91L202.46 364.67L235 485H235.129L205.631 375.92Z" fill="#8BBAE8"/>
<path id="Vector_6" d="M295 135C304.11 190.31 264.3 285 204.7 285C146.07 285 115 195.02 115 145.16C115 141.66 114.87 138.13 115 135C176.5 117.75 232.98 115.78 295 135Z" fill="#F7BE86"/>
<path id="Vector_7" d="M124.838 153.252C124.838 149.752 124.708 146.222 124.838 143.092C183.311 126.691 237.25 124.118 295.724 140.423C295.532 138.578 295.291 136.769 295 135C232.98 115.78 176.5 117.75 115 135C114.87 138.13 115 141.66 115 145.16C115 184.41 134.259 248.512 171.054 274.019C140.672 244.861 124.838 188.841 124.838 153.252Z" fill="#E2AD7D"/>
<path id="Vector_8" d="M261.29 289L287.15 319.73L234.21 385.91L202.46 364.67L261.29 289Z" fill="#E8F9F9"/>
<path id="Vector_9" d="M261.29 300.916L282.264 325.84L287.15 319.73L261.29 289L202.46 364.67L208.555 368.747L261.29 300.916Z" fill="#CCE5E4"/>
<path id="Vector_10" d="M202.46 364.67L235 485H167.75L202.46 364.67Z" fill="#D7DEED"/>
<path id="Vector_11" d="M207.222 382.279L202.46 364.67L167.75 485H177.591L207.222 382.279Z" fill="#AFB9D2"/>
<path id="Vector_12" d="M149.86 289L202.46 364.67L168.02 385.91L129.78 318.15L149.86 289Z" fill="#E8F9F9"/>
<path id="Vector_13" d="M149.86 302.25L196.013 368.646L202.46 364.67L149.86 289L129.78 318.15L133.89 325.434L149.86 302.25Z" fill="#CCE5E4"/>
<path id="Vector_14" d="M85 485H5V344.71L129.78 318.15L168.02 385.91L202.46 364.67L167.75 485H85Z" fill="#A8CFFF"/>
<g id="Group_2">
<g id="Group_3">
<g id="Group_4">
<path id="Vector_15" d="M177.854 393.744L197.583 381.576L202.46 364.67L172.035 383.434L177.854 393.744Z" fill="#8BBAE8"/>
</g>
<g id="Group_5">
<path id="Vector_16" d="M14.833 352.544L134.781 327.013L129.78 318.15L5 344.71V485H14.833V352.544Z" fill="#8BBAE8"/>
</g>
</g>
</g>
<path id="Vector_17" d="M85 490H5C2.239 490 0 487.762 0 485V344.71C0 342.35 1.65 340.311 3.959 339.819L128.739 313.259C131.443 312.69 134.095 314.408 134.671 317.109C135.246 319.81 133.522 322.465 130.821 323.041L10 348.758V480H85C87.761 480 90 482.238 90 485C90 487.762 87.761 490 85 490Z" fill="black"/>
<path id="Vector_18" d="M395 490H315C312.238 490 310 487.762 310 485C310 482.238 312.238 480 315 480H390V359.458L285.562 324.472C282.943 323.595 281.532 320.761 282.409 318.143C283.287 315.524 286.128 314.114 288.738 314.99L396.588 351.12C398.626 351.803 400 353.712 400 355.861V485C400 487.762 397.762 490 395 490Z" fill="black"/>
<path id="Vector_19" d="M315 490H85C82.239 490 80 487.762 80 485V411.57C80 408.808 82.239 406.57 85 406.57C87.761 406.57 90 408.808 90 411.57V480H310V411.57C310 408.808 312.238 406.57 315 406.57C317.762 406.57 320 408.808 320 411.57V485C320 487.762 317.762 490 315 490Z" fill="black"/>
<path id="Vector_20" d="M168.02 390.91C167.603 390.91 167.184 390.858 166.772 390.752C165.455 390.413 164.334 389.552 163.665 388.367L125.425 320.607C124.486 318.943 124.577 316.888 125.662 315.314L145.742 286.164C146.673 284.812 148.208 284.004 149.849 284C149.852 284 149.856 284 149.86 284C151.497 284 153.031 284.802 153.965 286.146L206.565 361.816C207.349 362.944 207.634 364.344 207.354 365.689C207.075 367.034 206.253 368.204 205.084 368.925L170.644 390.165C169.849 390.657 168.939 390.91 168.02 390.91ZM135.67 318.414L169.82 378.926L195.34 363.187L149.879 297.788L135.67 318.414Z" fill="black"/>
<path id="Vector_21" d="M234.207 390.91C233.248 390.91 232.281 390.636 231.43 390.066L199.68 368.826C198.527 368.054 197.745 366.838 197.524 365.468C197.303 364.098 197.661 362.697 198.513 361.601L257.343 285.931C258.27 284.74 259.685 284.031 261.194 284.001C262.684 283.955 264.144 284.625 265.116 285.78L290.976 316.51C292.512 318.335 292.545 320.99 291.055 322.853L238.115 389.033C237.132 390.262 235.679 390.91 234.207 390.91ZM209.703 363.5L233.174 379.201L280.684 319.81L261.445 296.948L209.703 363.5Z" fill="black"/>
<path id="Vector_22" d="M167.752 490.001C167.293 490.001 166.827 489.938 166.364 489.804C163.711 489.039 162.18 486.268 162.946 483.615L197.656 363.285C198.421 360.633 201.188 359.097 203.846 359.867C206.499 360.632 208.03 363.403 207.264 366.056L172.555 486.386C171.922 488.576 169.923 490.001 167.752 490.001Z" fill="black"/>
<path id="Vector_23" d="M234.997 490.001C232.794 490.001 230.776 488.534 230.174 486.306L197.633 365.976C196.912 363.31 198.489 360.565 201.154 359.844C203.825 359.121 206.565 360.698 207.286 363.365L239.826 483.695C240.548 486.361 238.971 489.106 236.305 489.827C235.868 489.944 235.429 490.001 234.997 490.001Z" fill="black"/>
<path id="Vector_24" d="M298.931 109.18C297.6 109.18 296.273 108.652 295.288 107.606C293.395 105.595 293.492 102.431 295.503 100.538L330.07 68.012L205.017 10.511L82.343 67.809L114.562 95.26C114.679 95.287 114.796 95.319 114.913 95.355C117.55 96.174 119.024 98.976 118.205 101.613L118.025 102.194C117.526 103.798 116.255 105.046 114.641 105.513C113.027 105.979 111.286 105.605 110.007 104.516L69.937 70.376C68.642 69.272 67.997 67.586 68.225 65.9C68.453 64.214 69.523 62.76 71.064 62.04L202.883 0.470002C204.217 -0.151998 205.754 -0.154998 207.088 0.457002L340.988 62.027C342.499 62.722 343.565 64.122 343.834 65.763C344.103 67.404 343.537 69.072 342.326 70.211L302.355 107.821C301.391 108.73 300.159 109.18 298.931 109.18Z" fill="black"/>
<g id="face">
<path id="Vector_25" d="M338.9 66.57L298.929 104.18C298.919 94.94 298.86 85.79 299.009 75.89C231.23 47.6 170.189 49.09 113.439 72.95C113.299 81.92 113.359 91.02 113.429 100.13L113.249 100.71L73.179 66.57L205 5L338.9 66.57Z" fill="#414A56"/>
<g id="Group_6">
<path id="Vector_26" d="M206.75 15.25L332.157 72.915L338.9 66.57L205 5L73.18 66.57L81.57 73.718L206.75 15.25Z" fill="#353E47"/>
<path id="Vector_27" d="M300.76 86.14C300.146 85.884 299.536 85.647 298.923 85.396C298.896 91.785 298.923 97.965 298.93 104.18L300.661 102.551C300.658 97.221 300.674 91.805 300.76 86.14Z" fill="#353E47"/>
</g>
<path id="Vector_28" d="M298.93 104.18C298.94 112.81 295 125 295 135C232.98 115.78 176.5 117.75 115 135C115.16 124.82 113.51 110.47 113.43 100.13C113.36 91.02 113.3 81.92 113.44 72.95C170.19 49.09 231.231 47.6 299.01 75.89C298.86 85.79 298.92 94.94 298.93 104.18Z" fill="#57606F"/>
<path id="Vector_29" d="M204.7 290C169.21 290 146.358 260.69 133.437 236.104C119.2 209.01 110 173.312 110 145.16C110 144.001 109.985 142.839 109.971 141.69C109.942 139.386 109.912 137.002 110.004 134.793C110.119 132.035 112.446 129.897 115.207 130.005C117.966 130.119 120.11 132.449 119.995 135.208C119.914 137.148 119.941 139.294 119.97 141.566C119.985 142.756 120 143.961 120 145.161C120 171.814 128.75 205.685 142.29 231.453C153.928 253.6 174.204 280 204.7 280C227.088 280 244.312 265.242 254.82 252.862C280.426 222.694 295.908 171.279 290.066 135.812C289.617 133.087 291.462 130.515 294.187 130.066C296.917 129.614 299.484 131.462 299.933 134.187C306.301 172.849 290.184 226.65 262.444 259.333C245.417 279.396 225.449 290 204.7 290Z" fill="black"/>
<path id="Vector_30" d="M205.741 240C191.803 240 181.687 228.799 181.263 228.322C179.428 226.258 179.614 223.098 181.678 221.263C183.738 219.431 186.89 219.613 188.726 221.666C188.851 221.804 196.384 230 205.741 230C205.761 230 205.779 230 205.799 230C211.169 229.98 216.372 227.181 221.263 221.678C223.099 219.615 226.258 219.427 228.323 221.263C230.386 223.097 230.572 226.258 228.738 228.322C221.849 236.071 214.112 240 205.741 240Z" fill="black"/>
<path id="Vector_31" d="M175 170H155C152.239 170 150 167.761 150 165C150 162.239 152.239 160 155 160H175C177.761 160 180 162.239 180 165C180 167.761 177.761 170 175 170Z" fill="black"/>
<path id="Vector_32" d="M255 170H235C232.238 170 230 167.761 230 165C230 162.239 232.238 160 235 160H255C257.762 160 260 162.239 260 165C260 167.761 257.762 170 255 170Z" fill="black"/>
<path id="Vector_33" d="M295 140C294.504 140 294.005 139.926 293.52 139.776C264.29 130.717 236.053 126.314 207.196 126.314C178.455 126.314 148.739 130.73 116.351 139.814C114.832 140.242 113.2 139.924 111.949 138.96C110.699 137.997 109.976 136.499 110.001 134.921C110.084 129.624 109.644 122.935 109.219 116.465C108.85 110.861 108.469 105.066 108.431 100.168C108.356 90.412 108.305 81.624 108.441 72.872C108.472 70.888 109.673 69.11 111.503 68.341C140.67 56.078 170.715 49.86 200.804 49.86C233.2 49.86 266.89 57.066 300.937 71.276C302.825 72.064 304.041 73.921 304.01 75.965C303.89 83.922 303.906 91.512 303.921 98.853L303.931 104.175C303.937 108.795 302.993 113.952 301.992 119.411C301.012 124.754 300 130.278 300 135C300 136.588 299.245 138.083 297.967 139.025C297.097 139.666 296.055 140 295 140ZM118.396 76.314C118.317 83.896 118.364 91.625 118.43 100.091C118.465 104.699 118.821 110.096 119.196 115.809C119.476 120.062 119.762 124.408 119.909 128.478C150.782 120.297 179.396 116.313 207.195 116.313C235.069 116.313 262.357 120.273 290.419 128.406C290.834 124.818 291.501 121.176 292.154 117.609C293.069 112.612 293.934 107.892 293.929 104.186L293.919 98.873C293.906 92.54 293.893 86.023 293.966 79.222C262.212 66.371 230.885 59.859 200.802 59.859C173.087 59.86 145.379 65.395 118.396 76.314Z" fill="black"/>
<g id="hat">
<path id="Vector_34" d="M338.9 156.36C336.138 156.36 333.9 154.121 333.9 151.36V70.84C333.9 68.079 336.138 65.84 338.9 65.84C341.662 65.84 343.9 68.079 343.9 70.84V151.36C343.9 154.121 341.662 156.36 338.9 156.36Z" fill="black"/>
<path id="Vector_35" d="M338.9 188.57C327.259 188.57 317.79 179.105 317.79 167.47C317.79 155.83 327.26 146.36 338.9 146.36C350.535 146.36 360 155.83 360 167.47C360 179.104 350.535 188.57 338.9 188.57ZM338.9 156.36C332.774 156.36 327.79 161.344 327.79 167.47C327.79 173.59 332.774 178.57 338.9 178.57C345.02 178.57 350 173.591 350 167.47C350 161.344 345.021 156.36 338.9 156.36Z" fill="black"/>
</g>
</g>
</g>
</svg>
